<?xml version="1.0" encoding="UTF-8" standalone="no"?>
<!-- Created with Inkscape (http://www.inkscape.org/) -->

<svg
   viewBox="0 0 210.08919 113.04753"
   version="1.1"
   id="svg5"
   xml:space="preserve"
   xmlns:inkscape="http://www.inkscape.org/namespaces/inkscape"
   xmlns:sodipodi="http://sodipodi.sourceforge.net/DTD/sodipodi-0.dtd"
   xmlns="http://www.w3.org/2000/svg"
   xmlns:svg="http://www.w3.org/2000/svg"><sodipodi:namedview
     id="namedview7"
     pagecolor="#ffffff"
     bordercolor="#000000"
     borderopacity="0.25"
     inkscape:showpageshadow="2"
     inkscape:pageopacity="0.0"
     inkscape:pagecheckerboard="0"
     inkscape:deskcolor="#d1d1d1"
     inkscape:document-units="mm"
     showgrid="false" /><defs
     id="defs2" /><g
     inkscape:label="Warstwa 1"
     inkscape:groupmode="layer"
     id="layer1"
     transform="translate(0.07908735,-107.35637)"><path
       style="fill:#0e1738;fill-opacity:1;stroke:none;stroke-width:1.4;stroke-linecap:round;stroke-linejoin:round"
       d="m -0.07908735,107.35637 c 0,0 22.60205635,2.35935 31.28067935,5.8494 8.678623,3.49005 14.035785,8.69987 20.814496,13.39862 6.147889,4.26149 11.246826,10.18524 18.000919,13.40068 7.825549,3.72553 16.65967,4.93078 25.201285,6.40033 8.577928,1.4758 17.313568,2.93079 26.001328,2.40012 9.39785,-0.57405 18.34387,-4.28361 27.60141,-6.00031 10.3465,-1.91863 21.17704,-1.33542 31.1189,-4.7837 7.67223,-2.66107 13.6457,-9.02391 21.20108,-12.00061 3.18955,-1.25663 8.86908,-2.04656 8.86908,-2.04656 l -0.005,96.36896 -210.00178661,0.0606 z"
       id="path1274"
       sodipodi:nodetypes="czssssssscccc"
       inkscape:export-filename="path1274.svg"
       inkscape:export-xdpi="96"
       inkscape:export-ydpi="96" /></g></svg>
