<?xml version="1.0" encoding="UTF-8" standalone="no"?>
<!-- Created with Inkscape (http://www.inkscape.org/) -->

<svg
   viewBox="0 0 211.1375 186.26668"
   version="1.1"
   id="svg5"
   xml:space="preserve"
   xmlns:xlink="http://www.w3.org/1999/xlink"
   xmlns="http://www.w3.org/2000/svg"
   xmlns:svg="http://www.w3.org/2000/svg"><defs
     id="defs2"><linearGradient
       id="linearGradient9879"><stop
         style="stop-color:#162365;stop-opacity:1;"
         offset="0"
         id="stop9875" /><stop
         style="stop-color:#ae6086;stop-opacity:1;"
         offset="0.56873316"
         id="stop12229" /><stop
         style="stop-color:#e7918d;stop-opacity:1;"
         offset="1"
         id="stop9877" /></linearGradient><linearGradient
       xlink:href="#linearGradient9879"
       id="linearGradient9881"
       x1="93.397919"
       y1="-0.79375213"
       x2="94.456238"
       y2="61.647911"
       gradientUnits="userSpaceOnUse"
       gradientTransform="translate(-362.1137,45.24375)" /></defs><g
     id="layer1"
     transform="translate(0.54879005,-5.8001412)"><g
       id="g14141"
       transform="translate(361.82948,-38.914443)"><path
         style="fill:#0e1738;stroke-width:1.4;stroke-linecap:round;stroke-linejoin:round"
         d="m -194.33646,83.079166 -1.85208,5.820833"
         id="path355" /><path
         id="rect9873"
         style="fill:url(#linearGradient9881);stroke-width:1.811;stroke-linecap:round;stroke-linejoin:round"
         d="m -362.37827,44.714584 h 211.1375 V 230.98125 h -211.1375 z" /><path
         id="path13395-7"
         style="fill:#ececec;stroke-width:0.477073;stroke-linecap:round;stroke-linejoin:round"
         d="m -285.87287,54.045238 a 0.20909789,0.20909789 0 0 1 -0.2091,0.209098 0.20909789,0.20909789 0 0 1 -0.2091,-0.209098 0.20909789,0.20909789 0 0 1 0.2091,-0.209097 0.20909789,0.20909789 0 0 1 0.2091,0.209097 z" /><path
         id="path13395-7-4"
         style="fill:#ececec;stroke-width:0.477073;stroke-linecap:round;stroke-linejoin:round"
         d="m -253.26173,51.59375 a 0.20909789,0.20909789 0 0 1 -0.2091,0.209098 0.20909789,0.20909789 0 0 1 -0.20909,-0.209098 0.20909789,0.20909789 0 0 1 0.20909,-0.209098 0.20909789,0.20909789 0 0 1 0.2091,0.209098 z" /><path
         id="path13395-7-5"
         style="fill:#ececec;stroke-width:0.477073;stroke-linecap:round;stroke-linejoin:round"
         d="m -251.40965,53.181252 a 0.20909789,0.20909789 0 0 1 -0.20909,0.209097 0.20909789,0.20909789 0 0 1 -0.2091,-0.209097 0.20909789,0.20909789 0 0 1 0.2091,-0.209098 0.20909789,0.20909789 0 0 1 0.20909,0.209098 z" /><path
         id="path13395-7-0"
         style="fill:#ececec;stroke-width:0.477073;stroke-linecap:round;stroke-linejoin:round"
         d="m -249.29298,55.5625 a 0.20909789,0.20909789 0 0 1 -0.2091,0.209098 0.20909789,0.20909789 0 0 1 -0.20909,-0.209098 0.20909789,0.20909789 0 0 1 0.20909,-0.209098 0.20909789,0.20909789 0 0 1 0.2091,0.209098 z" /><path
         id="path13395-7-3"
         style="fill:#ececec;fill-opacity:0.691525;stroke-width:0.477073;stroke-linecap:round;stroke-linejoin:round"
         d="m -257.75965,71.966667 a 0.20909789,0.20909789 0 0 1 -0.2091,0.209098 0.20909789,0.20909789 0 0 1 -0.2091,-0.209098 0.20909789,0.20909789 0 0 1 0.2091,-0.209098 0.20909789,0.20909789 0 0 1 0.2091,0.209098 z" /><path
         id="path13395-7-9"
         style="fill:#ececec;fill-opacity:0.681356;stroke-width:0.477073;stroke-linecap:round;stroke-linejoin:round"
         d="m -256.7013,69.585419 a 0.20909789,0.20909789 0 0 1 -0.2091,0.209098 0.20909789,0.20909789 0 0 1 -0.2091,-0.209098 0.20909789,0.20909789 0 0 1 0.2091,-0.209098 0.20909789,0.20909789 0 0 1 0.2091,0.209098 z" /><path
         id="path13395-7-06"
         style="fill:#ececec;stroke-width:0.477073;stroke-linecap:round;stroke-linejoin:round"
         d="m -255.11382,66.145836 a 0.20909789,0.20909789 0 0 1 -0.2091,0.209098 0.20909789,0.20909789 0 0 1 -0.2091,-0.209098 0.20909789,0.20909789 0 0 1 0.2091,-0.209098 0.20909789,0.20909789 0 0 1 0.2091,0.209098 z" /><path
         id="path13395-7-42"
         style="fill:#ececec;stroke-width:0.477073;stroke-linecap:round;stroke-linejoin:round"
         d="m -283.42423,62.706249 a 0.20909789,0.20909789 0 0 1 -0.2091,0.209098 0.20909789,0.20909789 0 0 1 -0.2091,-0.209098 0.20909789,0.20909789 0 0 1 0.2091,-0.209098 0.20909789,0.20909789 0 0 1 0.2091,0.209098 z" /><path
         id="path13395-7-00"
         style="fill:#ececec;stroke-width:0.477073;stroke-linecap:round;stroke-linejoin:round"
         d="m -304.85548,58.208332 a 0.20909789,0.20909789 0 0 1 -0.2091,0.209098 0.20909789,0.20909789 0 0 1 -0.20909,-0.209098 0.20909789,0.20909789 0 0 1 0.20909,-0.209098 0.20909789,0.20909789 0 0 1 0.2091,0.209098 z" /><path
         id="path13395-7-44"
         style="fill:#ececec;stroke-width:0.477073;stroke-linecap:round;stroke-linejoin:round"
         d="m -307.76591,51.858334 a 0.20909789,0.20909789 0 0 1 -0.2091,0.209097 0.20909789,0.20909789 0 0 1 -0.20909,-0.209097 0.20909789,0.20909789 0 0 1 0.20909,-0.209098 0.20909789,0.20909789 0 0 1 0.2091,0.209098 z" /><path
         id="path13395-7-8"
         style="fill:#ececec;stroke-width:0.477073;stroke-linecap:round;stroke-linejoin:round"
         d="m -174.15131,58.737499 a 0.20909789,0.20909789 0 0 1 -0.2091,0.209098 0.20909789,0.20909789 0 0 1 -0.2091,-0.209098 0.20909789,0.20909789 0 0 1 0.2091,-0.209098 0.20909789,0.20909789 0 0 1 0.2091,0.209098 z" /><path
         id="path13395-7-2"
         style="fill:#ececec;stroke-width:0.854365;stroke-linecap:round;stroke-linejoin:round"
         d="m -277.27266,57.579945 a 0.37446249,0.37446249 0 0 1 -0.37447,0.374462 0.37446249,0.37446249 0 0 1 -0.37446,-0.374462 0.37446249,0.37446249 0 0 1 0.37446,-0.374463 0.37446249,0.37446249 0 0 1 0.37447,0.374463 z" /><path
         id="path13395-7-45"
         style="fill:#ececec;stroke-width:0.892094;stroke-linecap:round;stroke-linejoin:round"
         d="m -278.56249,54.686066 a 0.39099893,0.39099893 0 0 1 -0.391,0.390999 0.39099893,0.39099893 0 0 1 -0.391,-0.390999 0.39099893,0.39099893 0 0 1 0.391,-0.390999 0.39099893,0.39099893 0 0 1 0.391,0.390999 z" /><path
         id="path13395-7-51"
         style="fill:#ececec;stroke-width:0.477073;stroke-linecap:round;stroke-linejoin:round"
         d="m -270.72422,53.181252 a 0.20909789,0.20909789 0 0 1 -0.2091,0.209097 0.20909789,0.20909789 0 0 1 -0.2091,-0.209097 0.20909789,0.20909789 0 0 1 0.2091,-0.209098 0.20909789,0.20909789 0 0 1 0.2091,0.209098 z" /><path
         id="path13395-7-7"
         style="fill:#ececec;stroke-width:0.477073;stroke-linecap:round;stroke-linejoin:round"
         d="m -282.63047,60.589584 a 0.20909789,0.20909789 0 0 1 -0.2091,0.209098 0.20909789,0.20909789 0 0 1 -0.2091,-0.209098 0.20909789,0.20909789 0 0 1 0.2091,-0.209098 0.20909789,0.20909789 0 0 1 0.2091,0.209098 z" /><path
         id="path13395-7-1"
         style="fill:#ececec;stroke-width:0.477073;stroke-linecap:round;stroke-linejoin:round"
         d="m -289.24506,58.208332 a 0.20909789,0.20909789 0 0 1 -0.2091,0.209098 0.20909789,0.20909789 0 0 1 -0.2091,-0.209098 0.20909789,0.20909789 0 0 1 0.2091,-0.209098 0.20909789,0.20909789 0 0 1 0.2091,0.209098 z" /><path
         id="path13395-7-94"
         style="fill:#ececec;stroke-width:0.477073;stroke-linecap:round;stroke-linejoin:round"
         d="m -300.093,52.387501 a 0.20909789,0.20909789 0 0 1 -0.20909,0.209098 0.20909789,0.20909789 0 0 1 -0.2091,-0.209098 0.20909789,0.20909789 0 0 1 0.2091,-0.209098 0.20909789,0.20909789 0 0 1 0.20909,0.209098 z" /><path
         id="path13395-7-78"
         style="fill:#ececec;stroke-width:0.477073;stroke-linecap:round;stroke-linejoin:round"
         d="m -345.86591,60.854168 a 0.20909789,0.20909789 0 0 1 -0.2091,0.209098 0.20909789,0.20909789 0 0 1 -0.2091,-0.209098 0.20909789,0.20909789 0 0 1 0.2091,-0.209098 0.20909789,0.20909789 0 0 1 0.2091,0.209098 z" /><path
         id="path13395-7-04"
         style="fill:#ececec;stroke-width:0.477073;stroke-linecap:round;stroke-linejoin:round"
         d="m -357.24299,53.974998 a 0.20909789,0.20909789 0 0 1 -0.2091,0.209098 0.20909789,0.20909789 0 0 1 -0.2091,-0.209098 0.20909789,0.20909789 0 0 1 0.2091,-0.209097 0.20909789,0.20909789 0 0 1 0.2091,0.209097 z" /><path
         id="path13395-7-30"
         style="fill:#ececec;stroke-width:0.477073;stroke-linecap:round;stroke-linejoin:round"
         d="m -171.2409,51.329166 a 0.20909789,0.20909789 0 0 1 -0.2091,0.209098 0.20909789,0.20909789 0 0 1 -0.20909,-0.209098 0.20909789,0.20909789 0 0 1 0.20909,-0.209097 0.20909789,0.20909789 0 0 1 0.2091,0.209097 z" /><path
         id="path13395-7-940"
         style="fill:#ececec;stroke-width:0.477073;stroke-linecap:round;stroke-linejoin:round"
         d="m -219.92423,50.799999 a 0.20909789,0.20909789 0 0 1 -0.2091,0.209098 0.20909789,0.20909789 0 0 1 -0.2091,-0.209098 0.20909789,0.20909789 0 0 1 0.2091,-0.209098 0.20909789,0.20909789 0 0 1 0.2091,0.209098 z" /><path
         id="path13395-7-13"
         style="fill:#ececec;stroke-width:0.477073;stroke-linecap:round;stroke-linejoin:round"
         d="m -244.79507,50.006248 a 0.20909789,0.20909789 0 0 1 -0.2091,0.209098 0.20909789,0.20909789 0 0 1 -0.20909,-0.209098 0.20909789,0.20909789 0 0 1 0.20909,-0.209097 0.20909789,0.20909789 0 0 1 0.2091,0.209097 z" /><path
         id="path13395-7-444"
         style="fill:#ececec;stroke-width:1.04301;stroke-linecap:round;stroke-linejoin:round"
         d="m -265.46565,48.13763 a 0.45714477,0.45714477 0 0 1 -0.45714,0.457145 0.45714477,0.45714477 0 0 1 -0.45715,-0.457145 0.45714477,0.45714477 0 0 1 0.45715,-0.457144 0.45714477,0.45714477 0 0 1 0.45714,0.457144 z" /><path
         id="path13395-7-02"
         style="fill:#ececec;stroke-width:0.477073;stroke-linecap:round;stroke-linejoin:round"
         d="m -324.43464,50.006248 a 0.20909789,0.20909789 0 0 1 -0.2091,0.209098 0.20909789,0.20909789 0 0 1 -0.2091,-0.209098 0.20909789,0.20909789 0 0 1 0.2091,-0.209097 0.20909789,0.20909789 0 0 1 0.2091,0.209097 z" /><path
         id="path13395-7-41"
         style="fill:#ececec;stroke-width:0.477073;stroke-linecap:round;stroke-linejoin:round"
         d="m -156.42423,52.122917 a 0.20909789,0.20909789 0 0 1 -0.2091,0.209098 0.20909789,0.20909789 0 0 1 -0.2091,-0.209098 0.20909789,0.20909789 0 0 1 0.2091,-0.209098 0.20909789,0.20909789 0 0 1 0.2091,0.209098 z" /><path
         id="path13395-7-32"
         style="fill:#ececec;stroke-width:0.477073;stroke-linecap:round;stroke-linejoin:round"
         d="m -234.21174,55.5625 a 0.20909789,0.20909789 0 0 1 -0.2091,0.209098 0.20909789,0.20909789 0 0 1 -0.2091,-0.209098 0.20909789,0.20909789 0 0 1 0.2091,-0.209098 0.20909789,0.20909789 0 0 1 0.2091,0.209098 z" /><path
         id="path13395-7-31"
         style="fill:#ececec;fill-opacity:0.738983;stroke-width:0.477073;stroke-linecap:round;stroke-linejoin:round"
         d="m -347.98255,81.491669 a 0.20909789,0.20909789 0 0 1 -0.2091,0.209098 0.20909789,0.20909789 0 0 1 -0.2091,-0.209098 0.20909789,0.20909789 0 0 1 0.2091,-0.209098 0.20909789,0.20909789 0 0 1 0.2091,0.209098 z" /><path
         id="path13395-7-77"
         style="fill:#ececec;fill-opacity:0.671186;stroke-width:0.477073;stroke-linecap:round;stroke-linejoin:round"
         d="m -319.67216,77.787498 a 0.20909789,0.20909789 0 0 1 -0.2091,0.209098 0.20909789,0.20909789 0 0 1 -0.20909,-0.209098 0.20909789,0.20909789 0 0 1 0.20909,-0.209097 0.20909789,0.20909789 0 0 1 0.2091,0.209097 z" /><path
         id="path13395-7-53"
         style="fill:#ececec;fill-opacity:0.616949;stroke-width:0.477073;stroke-linecap:round;stroke-linejoin:round"
         d="m -303.0034,89.429169 a 0.20909789,0.20909789 0 0 1 -0.20909,0.209098 0.20909789,0.20909789 0 0 1 -0.2091,-0.209098 0.20909789,0.20909789 0 0 1 0.2091,-0.209098 0.20909789,0.20909789 0 0 1 0.20909,0.209098 z" /><path
         id="path13395-1"
         style="fill:#ececec;stroke-width:1.811;stroke-linecap:round;stroke-linejoin:round"
         d="m -195.27517,54.255714 a 0.79374999,0.79374999 0 0 1 -0.79375,0.79375 0.79374999,0.79374999 0 0 1 -0.79375,-0.79375 0.79374999,0.79374999 0 0 1 0.79375,-0.79375 0.79374999,0.79374999 0 0 1 0.79375,0.79375 z" /><path
         id="path13395-4"
         style="fill:#ececec;stroke-width:1.811;stroke-linecap:round;stroke-linejoin:round"
         d="m -220.71924,62.113438 a 0.79374999,0.79374999 0 0 1 -0.79375,0.79375 0.79374999,0.79374999 0 0 1 -0.79375,-0.79375 0.79374999,0.79374999 0 0 1 0.79375,-0.79375 0.79374999,0.79374999 0 0 1 0.79375,0.79375 z" /><path
         id="path13395-77"
         style="fill:#ececec;stroke-width:1.811;stroke-linecap:round;stroke-linejoin:round"
         d="m -352.05549,48.268875 a 0.79374999,0.79374999 0 0 1 -0.79375,0.79375 0.79374999,0.79374999 0 0 1 -0.79375,-0.79375 0.79374999,0.79374999 0 0 1 0.79375,-0.79375 0.79374999,0.79374999 0 0 1 0.79375,0.79375 z" /><path
         id="path13395-0"
         style="fill:#ffffff;fill-opacity:0.528814;stroke-width:1.811;stroke-linecap:round;stroke-linejoin:round"
         d="m -218.47416,84.938255 a 0.79374999,0.79374999 0 0 1 -0.79375,0.79375 0.79374999,0.79374999 0 0 1 -0.79375,-0.79375 0.79374999,0.79374999 0 0 1 0.79375,-0.79375 0.79374999,0.79374999 0 0 1 0.79375,0.79375 z" /><path
         id="path13395-70"
         style="fill:#ececec;fill-opacity:0.79661;stroke-width:1.811;stroke-linecap:round;stroke-linejoin:round"
         d="m -274.97496,78.951416 a 0.79374999,0.79374999 0 0 1 -0.79375,0.79375 0.79374999,0.79374999 0 0 1 -0.79375,-0.79375 0.79374999,0.79374999 0 0 1 0.79375,-0.79375 0.79374999,0.79374999 0 0 1 0.79375,0.79375 z" /><path
         id="path13395-9"
         style="fill:#ececec;fill-opacity:0.576271;stroke-width:1.811;stroke-linecap:round;stroke-linejoin:round"
         d="m -323.61799,84.189903 a 0.79374999,0.79374999 0 0 1 -0.79375,0.79375 0.79374999,0.79374999 0 0 1 -0.79375,-0.79375 0.79374999,0.79374999 0 0 1 0.79375,-0.79375 0.79374999,0.79374999 0 0 1 0.79375,0.79375 z" /><path
         id="path13395"
         style="fill:#ececec;stroke-width:1.811;stroke-linecap:round;stroke-linejoin:round"
         d="m -337.07917,51.858334 a 0.79374999,0.79374999 0 0 1 -0.79375,0.79375 0.79374999,0.79374999 0 0 1 -0.79375,-0.79375 0.79374999,0.79374999 0 0 1 0.79375,-0.79375 0.79374999,0.79374999 0 0 1 0.79375,0.79375 z" /></g></g></svg>
