<?xml version="1.0" encoding="UTF-8" standalone="no"?>
<!-- Created with Inkscape (http://www.inkscape.org/) -->

<svg
   viewBox="0 0 210.17184 82.907181"
   version="1.1"
   id="svg5"
   xml:space="preserve"
   xmlns="http://www.w3.org/2000/svg"
   xmlns:svg="http://www.w3.org/2000/svg"><defs
     id="defs2" /><g
     id="layer1"
     transform="translate(-0.21731008,-39.09043)"><path
       style="fill:#585a85;fill-opacity:1;fill-rule:nonzero;stroke:none;stroke-width:1.46199;stroke-linecap:round;stroke-linejoin:round;stroke-dasharray:none;stroke-opacity:1"
       d="m 210.12643,47.842905 c 0,0 -10.6977,-3.192634 -16.28773,-4.341611 -9.59589,-1.972345 -19.39668,-3.895354 -29.42301,-4.341611 -7.19045,-0.320035 -14.40903,0.535086 -21.54184,1.215652 -8.22684,0.78495 -11.59226,1.737043 -19.6691,3.035041 -8.13491,1.307329 -18.74494,4.647566 -18.74494,4.647566 0,0 -6.425397,9.10765 -9.894976,12.477199 -4.401424,4.274526 -7.894372,7.393842 -12.517836,8.55728 -3.555598,0.894722 -13.133548,3.588025 -16.886993,3.177425 -3.289769,-0.359877 -17.53282,-10.17879 -17.53282,-10.17879 l -9.614099,2.100319 -5.738205,-2.802645 -11.814232,4.233333 -8.809081,3.952404 -11.43425793,1.372463 0.79562793,50.0087 209.376202,1.04198 z"
       id="path7777" /></g></svg>
