<?xml version="1.0" encoding="UTF-8" standalone="no"?>
<!-- Created with Inkscape (http://www.inkscape.org/) -->

<svg
   viewBox="0 0 210.34375 80.707695"
   version="1.1"
   id="svg5"
   xml:space="preserve"
   xmlns="http://www.w3.org/2000/svg"
   xmlns:svg="http://www.w3.org/2000/svg"><defs
     id="defs2" /><g
     id="layer1"
     transform="translate(0,-83.863134)"><path
       style="fill:#0e2246;fill-opacity:1;fill-rule:nonzero;stroke:none;stroke-width:1.811;stroke-linecap:round;stroke-linejoin:round;stroke-dasharray:none;stroke-opacity:1"
       d="m 210.34375,85.460416 -17.99167,1.852083 -12.7,-1.5875 c 0,0 -7.53651,-1.737434 -11.37708,-1.852083 -4.34204,-0.129619 -8.62815,1.067168 -12.96459,1.322916 -5.45928,0.321969 -11.15964,-1.285399 -16.40416,0.264584 -3.19163,0.943266 -5.50169,3.780005 -8.46667,5.291666 -7.54331,3.845865 -15.31023,7.56723 -23.54791,9.524998 -8.351297,1.98477 -17.102445,1.50577 -25.664588,2.11667 -7.314814,0.5219 -21.960416,1.32292 -21.960416,1.32292 l -20.902083,2.38125 -20.372917,1.05833 H 5.5562499 L 0,106.62708 0.26458333,162.18958 210.07916,164.57083 Z"
       id="path5945" /></g></svg>
