<?xml version="1.0" encoding="UTF-8" standalone="no"?>
<!-- Created with Inkscape (http://www.inkscape.org/) -->

<svg
   viewBox="0 0 210.07915 69.883072"
   version="1.1"
   id="svg5"
   xml:space="preserve"
   xmlns="http://www.w3.org/2000/svg"
   xmlns:svg="http://www.w3.org/2000/svg"><defs
     id="defs2" /><g
     id="layer1"
     transform="translate(0,-57.116926)"><path
       style="fill:#243c66;fill-opacity:1;fill-rule:nonzero;stroke:none;stroke-width:1.811;stroke-linecap:round;stroke-linejoin:round;stroke-dasharray:none;stroke-opacity:1"
       d="m 47.889583,101.26927 0.102106,-4.338515 2.64276,-4.82578 1.638382,4.568968 0.643835,-5.921861 1.151877,5.709863 1.361665,-5.842154 1.237397,4.582059 1.143853,-6.963309 0.926041,5.453303 1.190625,-4.527262 0.801776,4.48049 0.918016,-5.803407 1.058333,4.806518 1.322917,-6.129434 1.245422,3.733512 1.664995,-5.321012 1.805311,4.620807 1.50198,-5.67914 1.143853,5.227468 1.501981,-7.079552 1.813335,6.035891 2.287706,-6.565058 2.22156,6.309474 1.74719,-7.235515 1.852083,8.069792 1.058333,-5.820834 0.934068,4.885391 1.850706,-1.040907 1.316268,-5.564276 0.988864,4.036844 0.730928,-5.492052 1.369689,4.324125 0.87927,-5.647041 1.953652,4.696924 1.618222,-6.019841 1.836034,4.572658 1.702768,-4.969533 1.083376,4.12901 0.96715,-2.673802 0.80744,2.628407 0.8736,-4.133712 1.04464,2.391222 0.97849,-5.582271 1.46088,4.724323 1.15187,-3.732135 1.11978,3.65464 1.15188,-5.148596 1.18397,3.562473 1.49258,-4.604757 1.47929,2.87694 0.87124,-3.577145 1.30825,3.24974 0.84052,-4.525885 0.98084,3.716086 0.91801,-3.390058 0.83915,2.096487 0.88867,-3.808253 0.99551,3.530373 0.91939,-4.18243 1.11978,3.077325 0.8098,-5.193991 0.87125,4.619429 1.26284,-3.105294 0.96342,2.90491 0.55851,-2.195538 0.8098,-3.764235 1.2147,5.276993 0.9194,-6.287178 1.27614,6.08404 0.63737,-8.704658 0.76165,6.694832 0.79375,-2.910417 0.79375,2.645833 0.79375,-2.910416 1.05833,2.910416 1.15755,-9.822656 0.89297,6.581511 0.89297,-4.067969 0.89297,2.943489 1.19063,-4.729426 1.0914,4.299479 0.56623,-2.198262 0.46763,2.168914 1.08281,-2.682632 1.25677,2.910418 1.25677,-2.844271 0.99219,3.075781 0.8599,-2.381251 0.82682,2.745053 1.71979,-5.721614 1.55442,6.151561 1.40008,-4.202323 0.88065,4.177998 0.96042,-2.571898 0.69974,2.671635 0.86743,-1.654515 0.56543,1.432961 0.65981,-1.120514 0.51488,1.713141 1.43868,-2.447395 0.7276,2.662369 0.64493,-1.852083 0.62837,1.901693 1.33946,-2.100131 0.59532,2.199349 1.70325,-4.216797 2.21588,5.920052 0.87644,-3.96875 1.24023,4.7625 1.07487,-4.349088 1.20716,3.423047 1.52135,-6.763412 1.15755,6.598047 1.14102,-3.654558 1.47175,5.225522 1.37253,-4.20026 1.81901,5.771223 1.04179,-4.71289 0.95911,2.794661 1.1741,-7.209896 1.20716,7.358724 1.96285,-7.794346 1.59249,7.744737 0.9686,-3.141927 1.49533,5.820833 1.85208,-4.497917 2.38125,5.820833 2.38125,-4.7625 0.79375,5.027084 1.5875,-3.439584 0.79375,3.704167 2.38125,-3.175 1.5875,4.497917 1.85208,-4.7625 1.5875,5.820833 V 127 L 0,126.47083 V 99.747915 Z"
       id="path6204" /></g></svg>
